<svg xmlns="http://www.w3.org/2000/svg" xmlns:xlink="http://www.w3.org/1999/xlink" width="404" zoomAndPan="magnify" viewBox="0 0 303 326.250004" height="435" preserveAspectRatio="xMidYMid meet" version="1.0"><path fill="#000000" d="M 88.660156 49.5 L 88.660156 120.972656 L 151.515625 120.972656 L 151.515625 49.5 L 134.453125 49.5 L 134.453125 101.371094 L 105.714844 101.371094 L 105.714844 49.5 Z M 88.660156 49.5 " fill-opacity="1" fill-rule="nonzero"/><path fill="#000000" d="M 79.011719 120.679688 L 79.011719 103.617188 L 55.609375 103.617188 C 55 103.617188 54.394531 103.585938 53.789062 103.527344 C 53.183594 103.46875 52.582031 103.378906 51.988281 103.261719 C 51.390625 103.140625 50.800781 102.992188 50.21875 102.816406 C 49.636719 102.640625 49.066406 102.4375 48.503906 102.203125 C 47.941406 101.972656 47.394531 101.710938 46.855469 101.425781 C 46.320312 101.140625 45.800781 100.828125 45.292969 100.488281 C 44.789062 100.152344 44.300781 99.789062 43.832031 99.402344 C 43.359375 99.019531 42.910156 98.609375 42.480469 98.179688 C 42.050781 97.75 41.644531 97.300781 41.257812 96.832031 C 40.871094 96.363281 40.507812 95.875 40.171875 95.367188 C 39.832031 94.863281 39.523438 94.34375 39.234375 93.804688 C 38.949219 93.269531 38.6875 92.722656 38.457031 92.160156 C 38.222656 91.597656 38.015625 91.027344 37.839844 90.445312 C 37.664062 89.863281 37.515625 89.273438 37.398438 88.679688 C 37.277344 88.082031 37.1875 87.480469 37.128906 86.875 C 37.070312 86.269531 37.039062 85.664062 37.039062 85.058594 C 37.039062 84.449219 37.070312 83.84375 37.128906 83.238281 C 37.1875 82.632812 37.277344 82.03125 37.394531 81.433594 C 37.515625 80.835938 37.660156 80.25 37.839844 79.667969 C 38.015625 79.085938 38.21875 78.511719 38.453125 77.949219 C 38.683594 77.390625 38.945312 76.839844 39.230469 76.304688 C 39.519531 75.765625 39.832031 75.246094 40.167969 74.742188 C 40.507812 74.234375 40.867188 73.746094 41.253906 73.277344 C 41.640625 72.804688 42.046875 72.355469 42.476562 71.925781 C 42.90625 71.496094 43.359375 71.089844 43.828125 70.703125 C 44.296875 70.316406 44.785156 69.953125 45.292969 69.617188 C 45.796875 69.277344 46.320312 68.96875 46.855469 68.679688 C 47.390625 68.394531 47.941406 68.132812 48.503906 67.902344 C 49.0625 67.667969 49.636719 67.464844 50.21875 67.285156 C 50.800781 67.109375 51.390625 66.964844 51.984375 66.84375 C 52.582031 66.726562 53.183594 66.636719 53.789062 66.578125 C 54.394531 66.515625 55 66.488281 55.609375 66.488281 L 79.011719 66.488281 L 79.011719 49.425781 L 53.097656 49.425781 C 51.929688 49.425781 50.765625 49.484375 49.605469 49.597656 C 48.445312 49.710938 47.292969 49.882812 46.148438 50.109375 C 45.003906 50.335938 43.871094 50.621094 42.753906 50.960938 C 41.640625 51.296875 40.542969 51.691406 39.464844 52.136719 C 38.386719 52.582031 37.332031 53.082031 36.304688 53.632812 C 35.273438 54.179688 34.277344 54.78125 33.304688 55.429688 C 32.335938 56.078125 31.398438 56.769531 30.496094 57.511719 C 29.597656 58.25 28.734375 59.035156 27.90625 59.859375 C 27.082031 60.683594 26.300781 61.546875 25.558594 62.449219 C 24.820312 63.351562 24.125 64.285156 23.476562 65.257812 C 22.828125 66.226562 22.230469 67.226562 21.679688 68.253906 C 21.128906 69.285156 20.632812 70.335938 20.1875 71.414062 C 19.738281 72.492188 19.347656 73.589844 19.007812 74.707031 C 18.667969 75.824219 18.386719 76.953125 18.160156 78.097656 C 17.929688 79.242188 17.761719 80.394531 17.644531 81.554688 C 17.53125 82.71875 17.472656 83.878906 17.472656 85.046875 C 17.476562 86.214844 17.53125 87.378906 17.648438 88.539062 C 17.761719 89.699219 17.933594 90.851562 18.160156 91.996094 C 18.386719 93.140625 18.671875 94.269531 19.011719 95.386719 C 19.347656 96.503906 19.742188 97.601562 20.1875 98.679688 C 20.636719 99.753906 21.132812 100.808594 21.683594 101.835938 C 22.234375 102.867188 22.832031 103.867188 23.480469 104.835938 C 24.128906 105.804688 24.824219 106.742188 25.5625 107.644531 C 26.304688 108.546875 27.085938 109.410156 27.910156 110.234375 C 28.734375 111.058594 29.597656 111.839844 30.5 112.582031 C 31.402344 113.320312 32.339844 114.015625 33.308594 114.664062 C 34.277344 115.3125 35.277344 115.910156 36.304688 116.460938 C 37.335938 117.011719 38.386719 117.507812 39.464844 117.957031 C 40.542969 118.402344 41.640625 118.792969 42.757812 119.132812 C 43.875 119.472656 45.003906 119.753906 46.148438 119.984375 C 47.292969 120.210938 48.445312 120.382812 49.605469 120.496094 C 50.765625 120.613281 51.929688 120.667969 53.097656 120.667969 Z M 79.011719 120.679688 " fill-opacity="1" fill-rule="nonzero"/><path fill="#000000" d="M 217.441406 90.429688 C 216.195312 88.902344 214.746094 87.601562 213.09375 86.527344 C 211.4375 85.457031 209.660156 84.660156 207.753906 84.148438 C 209.378906 83.457031 210.847656 82.523438 212.164062 81.351562 C 213.480469 80.175781 214.574219 78.820312 215.441406 77.285156 C 217.140625 74.316406 217.988281 71.121094 217.992188 67.699219 C 217.988281 65.421875 217.609375 63.210938 216.847656 61.066406 C 216.101562 58.917969 215.007812 56.964844 213.566406 55.207031 C 212.140625 53.476562 210.433594 52.085938 208.449219 51.035156 C 206.34375 49.9375 204.101562 49.402344 201.726562 49.433594 L 161.859375 49.433594 L 161.859375 120.679688 L 195.414062 120.679688 C 198.75 120.699219 202.042969 120.34375 205.300781 119.617188 C 208.210938 119.003906 210.933594 117.921875 213.472656 116.367188 C 214.671875 115.652344 215.757812 114.789062 216.722656 113.78125 C 217.691406 112.773438 218.511719 111.65625 219.175781 110.429688 C 219.84375 109.203125 220.335938 107.910156 220.65625 106.546875 C 220.972656 105.1875 221.105469 103.808594 221.054688 102.414062 C 221.023438 97.402344 219.820312 93.40625 217.441406 90.429688 Z M 181.421875 66.089844 L 193.917969 66.089844 C 195.1875 66.070312 196.292969 66.492188 197.234375 67.351562 C 198.183594 68.183594 198.644531 69.566406 198.644531 71.511719 C 198.644531 73.71875 198.085938 75.199219 196.976562 75.929688 C 195.875 76.679688 194.65625 77.050781 193.320312 77.039062 L 181.414062 77.039062 Z M 199.488281 102.714844 C 198.9375 103.222656 198.308594 103.605469 197.601562 103.867188 C 196.898438 104.125 196.171875 104.246094 195.421875 104.222656 L 181.414062 104.222656 L 181.414062 92.28125 L 196.125 92.28125 C 196.832031 92.265625 197.503906 92.414062 198.136719 92.722656 C 198.773438 93.03125 199.300781 93.46875 199.726562 94.035156 C 200.726562 95.320312 201.199219 96.777344 201.140625 98.402344 C 201.191406 99.207031 201.070312 99.988281 200.78125 100.742188 C 200.492188 101.496094 200.058594 102.152344 199.480469 102.714844 Z M 199.488281 102.714844 " fill-opacity="1" fill-rule="nonzero"/><path fill="#000000" d="M 250.5625 103.617188 L 250.5625 92.382812 L 276.449219 92.382812 L 276.449219 76.515625 L 250.5625 76.515625 L 250.5625 66.488281 L 280.855469 66.488281 L 280.855469 49.433594 L 230.996094 49.433594 L 230.996094 120.679688 L 281.757812 120.679688 L 281.757812 103.617188 Z M 250.5625 103.617188 " fill-opacity="1" fill-rule="nonzero"/><path fill="#000000" d="M 27.351562 37.113281 L 36.308594 37.113281 L 36.308594 12.304688 L 45.683594 12.304688 L 45.683594 4.484375 L 17.9375 4.484375 L 17.9375 12.304688 L 27.351562 12.304688 Z M 27.351562 37.113281 " fill-opacity="1" fill-rule="nonzero"/><path fill="#000000" d="M 56.765625 24.34375 L 67.695312 24.34375 L 67.695312 37.113281 L 76.652344 37.113281 L 76.652344 4.484375 L 67.695312 4.484375 L 67.695312 16.535156 L 56.765625 16.535156 L 56.765625 4.484375 L 47.796875 4.484375 L 47.796875 37.113281 L 56.765625 37.113281 Z M 56.765625 24.34375 " fill-opacity="1" fill-rule="nonzero"/><path fill="#000000" d="M 104.367188 29.300781 L 90.074219 29.300781 L 90.074219 24.15625 L 101.933594 24.15625 L 101.933594 16.902344 L 90.074219 16.902344 L 90.074219 12.304688 L 103.949219 12.304688 L 103.949219 4.484375 L 81.117188 4.484375 L 81.117188 37.113281 L 104.367188 37.113281 Z M 104.367188 29.300781 " fill-opacity="1" fill-rule="nonzero"/><path fill="#db9d14" d="M 174.265625 254.355469 C 165.507812 263.679688 156.578125 274.582031 150.898438 287.890625 C 149.492188 291.136719 148.421875 294.492188 147.695312 297.957031 C 139.09375 300.5 130.3125 301.792969 121.34375 301.835938 C 89.882812 301.835938 66.726562 284.675781 58.496094 259.179688 C 65.261719 262.949219 72.503906 265.132812 80.222656 265.730469 C 80.5 265.730469 80.859375 265.730469 81.171875 265.785156 L 81.246094 265.785156 C 82.335938 265.859375 83.410156 265.890625 84.515625 265.890625 C 87.972656 265.863281 91.394531 265.535156 94.792969 264.90625 C 98.1875 264.277344 101.503906 263.359375 104.738281 262.144531 C 107.972656 260.933594 111.074219 259.445312 114.046875 257.6875 C 117.019531 255.929688 119.8125 253.921875 122.433594 251.671875 C 123.910156 250.433594 125.320312 249.125 126.660156 247.746094 L 126.992188 248.203125 C 128.109375 249.832031 129.449219 251.257812 131.011719 252.46875 C 132.574219 253.683594 134.28125 254.632812 136.140625 255.3125 C 138.09375 256.011719 140.109375 256.363281 142.1875 256.363281 C 144.738281 256.304688 147.207031 255.824219 149.59375 254.925781 C 151.980469 254.023438 154.148438 252.753906 156.101562 251.113281 C 157.550781 252.679688 159.25 253.898438 161.199219 254.769531 C 163.148438 255.636719 165.191406 256.082031 167.324219 256.105469 L 167.535156 256.105469 C 169.917969 256.058594 172.160156 255.472656 174.265625 254.355469 Z M 174.265625 254.355469 " fill-opacity="1" fill-rule="nonzero"/><path fill="#db9d14" d="M 229.699219 190.609375 C 228.71875 190.445312 227.734375 190.363281 226.738281 190.359375 C 224.265625 190.40625 221.878906 190.886719 219.578125 191.792969 C 217.273438 192.703125 215.203125 193.984375 213.367188 195.640625 C 213.234375 195.746094 213.117188 195.859375 212.984375 195.972656 C 212.277344 195.167969 211.488281 194.445312 210.621094 193.808594 C 209.757812 193.171875 208.832031 192.636719 207.851562 192.199219 C 206.871094 191.761719 205.851562 191.4375 204.800781 191.21875 C 203.75 191 202.6875 190.898438 201.613281 190.910156 C 199.402344 190.90625 197.285156 191.347656 195.261719 192.238281 C 190.71875 194.210938 187.972656 197.726562 186.140625 200.078125 L 185.792969 200.53125 C 184.492188 202.164062 183.0625 203.785156 181.46875 205.453125 C 180.675781 202.910156 179.398438 200.644531 177.628906 198.65625 C 176.15625 197.105469 174.507812 195.765625 172.691406 194.636719 C 172.332031 194.410156 172.035156 194.210938 171.742188 193.992188 L 171.441406 193.753906 C 171.320312 193.671875 171.207031 193.585938 171.097656 193.488281 C 169.421875 192.109375 167.578125 191.015625 165.5625 190.210938 C 163.714844 189.503906 161.796875 189.152344 159.820312 189.15625 C 155.011719 189.15625 150.339844 191.121094 145.46875 195.15625 C 144.726562 195.773438 143.988281 196.390625 143.289062 197.054688 C 142.566406 192.5625 141.289062 188.234375 139.453125 184.074219 C 137.613281 179.910156 135.277344 176.050781 132.441406 172.492188 C 130.554688 170.101562 128.472656 167.894531 126.191406 165.875 C 123.910156 163.851562 121.472656 162.046875 118.871094 160.457031 C 116.273438 158.871094 113.550781 157.523438 110.710938 156.417969 C 107.871094 155.3125 104.957031 154.464844 101.96875 153.875 C 120.308594 140.484375 142.128906 132.339844 163.808594 132.339844 C 201.347656 132.378906 227.054688 156.796875 229.699219 190.609375 Z M 229.699219 190.609375 " fill-opacity="1" fill-rule="nonzero"/><path fill="#ffffff" d="M 196.738281 206.332031 L 196.644531 206.332031 L 196.644531 206.410156 C 196.644531 206.351562 196.683594 206.332031 196.738281 206.332031 Z M 196.738281 206.332031 " fill-opacity="1" fill-rule="nonzero"/><path fill="#db9d14" d="M 255.773438 207.6875 C 254.019531 208.152344 252.292969 208.710938 250.597656 209.367188 C 247.105469 210.75 243.761719 212.425781 240.558594 214.390625 C 234.03125 218.316406 228.019531 223.027344 221.800781 227.425781 C 220.9375 228.03125 219.6875 228.609375 218.957031 227.878906 C 218.226562 227.148438 218.691406 225.984375 219.195312 225.101562 C 222.878906 218.675781 226.761719 212.355469 230.84375 206.144531 C 231.246094 205.628906 231.519531 205.054688 231.667969 204.417969 C 231.898438 202.902344 230.550781 201.574219 229.121094 201.054688 C 226.085938 199.933594 222.617188 201.222656 220.191406 203.355469 C 217.761719 205.488281 216.152344 208.351562 214.398438 211.054688 C 211.398438 215.695312 207.953125 219.976562 204.058594 223.898438 C 200.160156 227.820312 195.902344 231.296875 191.28125 234.324219 C 190.710938 231.175781 192.472656 228.125 194.171875 225.40625 L 204.324219 209.121094 C 205.269531 207.507812 206.359375 205.640625 205.820312 203.820312 C 205.082031 201.375 201.734375 200.609375 199.394531 201.640625 C 197.050781 202.675781 195.46875 204.855469 193.886719 206.863281 C 186.550781 216.164062 176.976562 223.414062 167.515625 230.5625 C 167.675781 226.183594 169.835938 222.171875 171.175781 218 C 172.511719 213.832031 172.863281 208.789062 169.933594 205.527344 C 168.605469 204.273438 167.164062 203.171875 165.609375 202.21875 C 164.492188 201.242188 163.261719 200.433594 161.921875 199.792969 C 158.519531 198.503906 154.84375 200.742188 152.046875 203.023438 C 145.945312 208.101562 140.957031 214.105469 137.089844 221.035156 C 133.429688 227.558594 131.085938 236.097656 135.402344 242.203125 C 136.457031 243.769531 137.867188 244.894531 139.628906 245.578125 C 143.203125 246.867188 147.210938 245.160156 150.054688 242.683594 C 152.898438 240.210938 155.109375 236.996094 157.941406 234.484375 C 158.425781 234.058594 159.089844 233.625 159.667969 233.90625 C 160.070312 234.199219 160.304688 234.59375 160.359375 235.09375 C 160.890625 237.347656 161.117188 239.71875 162.09375 241.824219 C 163.070312 243.925781 165.042969 245.8125 167.363281 245.765625 C 169.6875 245.71875 171.574219 243.804688 173.128906 242.03125 L 181.261719 232.78125 C 180.882812 233.414062 180.597656 234.089844 180.402344 234.800781 C 180.207031 235.515625 180.109375 236.242188 180.113281 236.980469 C 180.117188 237.71875 180.214844 238.441406 180.414062 239.15625 C 180.613281 239.867188 180.90625 240.539062 181.289062 241.171875 C 181.667969 241.804688 182.128906 242.375 182.664062 242.882812 C 183.203125 243.390625 183.796875 243.816406 184.449219 244.164062 C 185.101562 244.507812 185.789062 244.761719 186.511719 244.921875 C 187.234375 245.082031 187.964844 245.140625 188.699219 245.101562 C 194.027344 244.828125 197.667969 239.691406 202.484375 237.394531 C 203.355469 238.863281 202.113281 240.648438 200.9375 241.871094 C 186.007812 257.472656 168.898438 272.042969 160.367188 291.9375 C 157.523438 298.621094 155.78125 306.421875 158.792969 313.039062 C 159.835938 315.304688 161.554688 317.4375 163.941406 318.167969 C 167.011719 319.113281 170.3125 317.457031 172.699219 315.324219 C 176.054688 312.308594 178.386719 308.316406 180.558594 304.402344 C 186.132812 294.601562 191.707031 284.78125 196.253906 274.476562 C 199.148438 267.929688 201.355469 261.082031 204.71875 254.742188 C 207.992188 248.589844 212.125 242.070312 217.269531 237.300781 C 222.664062 232.316406 228.910156 228.25 235.121094 224.363281 C 242.597656 219.679688 250.21875 215.160156 256.75 209.195312 C 258.617188 207.519531 258.050781 207.101562 255.773438 207.6875 Z M 196.644531 206.332031 L 196.738281 206.332031 C 196.683594 206.332031 196.644531 206.332031 196.644531 206.410156 Z M 163.117188 211.074219 C 161.363281 215.8125 158.054688 219.839844 154.777344 223.652344 C 151.496094 227.460938 148.425781 231.425781 144.539062 234.515625 C 143.636719 235.234375 141.304688 237.195312 140.140625 235.917969 C 139.996094 235.699219 139.949219 235.460938 140 235.207031 C 140.527344 230.117188 144.214844 225.945312 147.15625 222.019531 C 148.726562 219.9375 150.367188 217.898438 152.09375 215.925781 C 154.703125 212.902344 157.773438 210.460938 161.308594 208.597656 C 161.792969 208.316406 162.3125 208.144531 162.871094 208.085938 C 163.152344 208.042969 163.402344 208.113281 163.621094 208.296875 C 164.160156 208.855469 163.335938 210.457031 163.117188 211.054688 Z M 188.910156 273.863281 C 187.316406 277.605469 185.542969 281.265625 183.640625 284.855469 C 179.847656 292.0625 175.535156 298.980469 171.144531 305.835938 C 170.378906 307.027344 166.765625 311.238281 165.410156 309.074219 C 164.910156 308.269531 165.296875 307.179688 165.457031 306.230469 C 165.722656 304.863281 166.078125 303.515625 166.519531 302.195312 C 167.4375 299.546875 168.53125 296.972656 169.808594 294.476562 C 174.703125 284.617188 180.625 275.425781 187.582031 266.894531 C 188.285156 265.855469 189.097656 264.90625 190.019531 264.050781 C 190.625 263.585938 192.207031 262.703125 192.273438 264.050781 C 192.453125 267.253906 190.132812 270.96875 188.910156 273.84375 Z M 188.910156 273.863281 " fill-opacity="1" fill-rule="nonzero"/><path fill="#c57d01" d="M 106.6875 198.757812 L 79.996094 226.808594 C 79.832031 227 79.640625 227.152344 79.414062 227.265625 C 79.191406 227.378906 78.953125 227.445312 78.703125 227.464844 C 78.453125 227.484375 78.207031 227.457031 77.96875 227.378906 C 77.730469 227.300781 77.515625 227.179688 77.324219 227.015625 L 74.222656 224.097656 C 74.050781 223.914062 73.921875 223.707031 73.832031 223.472656 C 73.742188 223.238281 73.699219 222.996094 73.703125 222.746094 C 73.710938 222.496094 73.765625 222.257812 73.867188 222.027344 C 73.96875 221.796875 74.109375 221.597656 74.289062 221.425781 L 100.964844 193.347656 C 101.128906 193.15625 101.320312 193.003906 101.542969 192.890625 C 101.769531 192.777344 102.007812 192.707031 102.257812 192.6875 C 102.507812 192.667969 102.753906 192.699219 102.992188 192.777344 C 103.230469 192.855469 103.445312 192.976562 103.636719 193.136719 L 106.753906 196.085938 C 106.925781 196.269531 107.058594 196.476562 107.148438 196.710938 C 107.238281 196.945312 107.28125 197.1875 107.273438 197.4375 C 107.265625 197.6875 107.214844 197.925781 107.113281 198.15625 C 107.011719 198.386719 106.871094 198.585938 106.6875 198.757812 Z M 106.6875 198.757812 " fill-opacity="1" fill-rule="nonzero"/><path fill="#c57d01" d="M 114.308594 213.8125 L 97.144531 231.824219 C 96.980469 232.011719 96.785156 232.164062 96.5625 232.28125 C 96.339844 232.394531 96.101562 232.460938 95.851562 232.480469 C 95.597656 232.5 95.355469 232.46875 95.117188 232.394531 C 94.875 232.316406 94.660156 232.195312 94.46875 232.03125 L 91.363281 229.09375 C 91.1875 228.910156 91.058594 228.703125 90.96875 228.46875 C 90.878906 228.234375 90.835938 227.992188 90.84375 227.742188 C 90.847656 227.492188 90.902344 227.25 91.003906 227.023438 C 91.105469 226.792969 91.246094 226.59375 91.425781 226.417969 L 108.613281 208.363281 C 108.777344 208.171875 108.96875 208.019531 109.195312 207.902344 C 109.417969 207.789062 109.65625 207.722656 109.90625 207.703125 C 110.15625 207.683594 110.402344 207.714844 110.640625 207.792969 C 110.878906 207.871094 111.09375 207.988281 111.285156 208.152344 L 114.386719 211.089844 C 114.566406 211.273438 114.699219 211.488281 114.792969 211.726562 C 114.886719 211.964844 114.929688 212.210938 114.921875 212.46875 C 114.917969 212.722656 114.859375 212.96875 114.753906 213.203125 C 114.648438 213.4375 114.5 213.640625 114.308594 213.8125 Z M 114.308594 213.8125 " fill-opacity="1" fill-rule="nonzero"/><path fill="#c57d01" d="M 91.304688 191.925781 L 74.109375 209.992188 C 73.945312 210.183594 73.753906 210.335938 73.527344 210.449219 C 73.304688 210.5625 73.066406 210.628906 72.816406 210.648438 C 72.566406 210.667969 72.320312 210.640625 72.082031 210.5625 C 71.84375 210.484375 71.628906 210.363281 71.4375 210.199219 L 68.335938 207.261719 C 68.164062 207.082031 68.035156 206.871094 67.945312 206.636719 C 67.855469 206.40625 67.8125 206.164062 67.820312 205.910156 C 67.824219 205.660156 67.878906 205.421875 67.980469 205.191406 C 68.082031 204.964844 68.222656 204.761719 68.402344 204.589844 L 85.570312 186.53125 C 85.734375 186.339844 85.925781 186.1875 86.152344 186.074219 C 86.375 185.960938 86.613281 185.894531 86.863281 185.875 C 87.113281 185.855469 87.359375 185.882812 87.597656 185.960938 C 87.835938 186.039062 88.050781 186.160156 88.242188 186.324219 L 91.34375 189.253906 C 91.515625 189.433594 91.648438 189.640625 91.742188 189.871094 C 91.835938 190.105469 91.878906 190.347656 91.875 190.597656 C 91.871094 190.847656 91.820312 191.085938 91.722656 191.316406 C 91.621094 191.546875 91.484375 191.75 91.304688 191.925781 Z M 91.304688 191.925781 " fill-opacity="1" fill-rule="nonzero"/><path fill="#db9d14" d="M 124.347656 178.855469 C 122.546875 176.59375 120.53125 174.542969 118.300781 172.703125 C 116.074219 170.859375 113.679688 169.269531 111.117188 167.925781 C 108.558594 166.585938 105.886719 165.523438 103.101562 164.738281 C 100.320312 163.953125 97.488281 163.464844 94.601562 163.269531 L 93.855469 163.269531 C 92.90625 163.214844 92.023438 163.183594 91.113281 163.183594 C 88.449219 163.199219 85.804688 163.433594 83.175781 163.890625 C 80.550781 164.347656 77.980469 165.019531 75.46875 165.910156 C 72.953125 166.796875 70.53125 167.886719 68.199219 169.179688 C 65.871094 170.472656 63.660156 171.949219 61.578125 173.613281 C 61.007812 174.046875 60.460938 174.503906 59.910156 174.96875 C 57.59375 176.910156 55.46875 179.046875 53.539062 181.375 L 53.386719 181.566406 L 53.386719 181.800781 C 53.386719 183.699219 53.386719 185.832031 53.386719 188.257812 C 53.332031 191.347656 53.21875 194.238281 53.058594 197.089844 C 52.640625 204.210938 51.882812 211.605469 50.800781 219.054688 C 50.421875 221.753906 49.957031 224.683594 49.339844 228.277344 C 48.953125 230.65625 48.46875 233.101562 48.097656 234.960938 L 48.097656 235.167969 L 48.203125 235.359375 C 50.015625 238.386719 52.179688 241.136719 54.695312 243.613281 C 56.460938 245.339844 58.363281 246.894531 60.402344 248.285156 C 62.441406 249.671875 64.585938 250.875 66.835938 251.882812 C 69.085938 252.894531 71.40625 253.703125 73.796875 254.304688 C 76.191406 254.910156 78.617188 255.296875 81.078125 255.472656 C 81.351562 255.472656 81.617188 255.472656 81.863281 255.519531 C 82.746094 255.519531 83.644531 255.59375 84.554688 255.59375 C 87.40625 255.570312 90.230469 255.300781 93.03125 254.78125 C 95.835938 254.257812 98.570312 253.496094 101.238281 252.496094 C 103.90625 251.496094 106.464844 250.269531 108.917969 248.816406 C 111.367188 247.363281 113.675781 245.707031 115.835938 243.851562 C 118.066406 241.976562 120.117188 239.925781 121.992188 237.695312 C 123.867188 235.464844 125.535156 233.089844 126.996094 230.574219 C 128.460938 228.054688 129.695312 225.425781 130.699219 222.695312 C 131.707031 219.960938 132.472656 217.160156 132.992188 214.296875 C 133.136719 213.507812 133.238281 212.710938 133.34375 211.933594 C 133.753906 209.015625 133.863281 206.089844 133.679688 203.148438 C 133.492188 200.207031 133.015625 197.316406 132.242188 194.472656 C 131.46875 191.628906 130.417969 188.890625 129.085938 186.261719 C 127.757812 183.632812 126.179688 181.164062 124.347656 178.855469 Z M 124.09375 211.640625 C 123.769531 214.089844 123.226562 216.484375 122.457031 218.828125 C 121.691406 221.175781 120.714844 223.429688 119.527344 225.59375 C 118.34375 227.757812 116.96875 229.796875 115.402344 231.703125 C 113.839844 233.613281 112.113281 235.363281 110.222656 236.949219 C 108.511719 238.421875 106.683594 239.730469 104.738281 240.878906 C 102.796875 242.027344 100.765625 242.996094 98.652344 243.789062 C 96.539062 244.582031 94.371094 245.183594 92.152344 245.59375 C 89.933594 246.007812 87.695312 246.222656 85.4375 246.238281 C 84.726562 246.238281 83.996094 246.238281 83.277344 246.171875 C 83.085938 246.171875 82.886719 246.171875 82.699219 246.171875 C 80.253906 246 77.859375 245.570312 75.515625 244.875 C 73.167969 244.179688 70.921875 243.242188 68.777344 242.054688 C 66.636719 240.871094 64.648438 239.46875 62.8125 237.851562 C 60.976562 236.230469 59.335938 234.433594 57.890625 232.457031 C 60.960938 216.519531 62.574219 200.4375 62.734375 184.210938 C 63.558594 183.375 64.441406 182.558594 65.445312 181.699219 C 67.160156 180.230469 68.988281 178.925781 70.929688 177.78125 C 72.875 176.636719 74.902344 175.667969 77.015625 174.878906 C 79.128906 174.09375 81.292969 173.496094 83.511719 173.085938 C 85.730469 172.679688 87.96875 172.46875 90.222656 172.457031 C 90.953125 172.457031 91.683594 172.457031 92.402344 172.511719 L 92.992188 172.511719 C 95.316406 172.667969 97.597656 173.0625 99.835938 173.695312 C 102.078125 174.324219 104.230469 175.183594 106.292969 176.261719 C 108.355469 177.34375 110.28125 178.625 112.078125 180.105469 C 113.871094 181.589844 115.496094 183.242188 116.945312 185.0625 C 118.40625 186.921875 119.667969 188.910156 120.726562 191.023438 C 121.789062 193.136719 122.625 195.335938 123.238281 197.621094 C 123.855469 199.90625 124.234375 202.226562 124.378906 204.585938 C 124.523438 206.949219 124.433594 209.300781 124.101562 211.640625 Z M 124.09375 211.640625 " fill-opacity="1" fill-rule="nonzero"/></svg>