<svg xmlns="http://www.w3.org/2000/svg" xmlns:xlink="http://www.w3.org/1999/xlink" width="500" zoomAndPan="magnify" viewBox="0 0 375 237.75" height="317" preserveAspectRatio="xMidYMid meet" version="1.0"><path fill="#000000" d="M 178.796875 61.878906 L 163.796875 61.878906 L 163.796875 107.464844 L 138.507812 107.464844 L 138.507812 61.878906 L 123.503906 61.878906 L 123.503906 124.652344 L 178.796875 124.652344 Z M 178.796875 61.878906 " fill-opacity="1" fill-rule="nonzero"/><path fill="#000000" d="M 94.429688 76.796875 L 115.015625 76.796875 L 115.015625 61.816406 L 92.21875 61.816406 C 74.914062 61.816406 60.886719 75.824219 60.886719 93.105469 C 60.886719 110.382812 74.914062 124.394531 92.21875 124.394531 L 115.015625 124.394531 L 115.015625 109.410156 L 94.429688 109.410156 C 85.410156 109.410156 78.097656 102.113281 78.097656 93.105469 C 78.097656 84.09375 85.410156 76.796875 94.429688 76.796875 Z M 94.429688 76.796875 " fill-opacity="1" fill-rule="nonzero"/><path fill="#000000" d="M 236.785156 97.824219 C 234.691406 95.195312 231.863281 93.375 228.265625 92.300781 C 231.269531 90.960938 233.53125 88.949219 235.027344 86.273438 C 236.527344 83.597656 237.277344 80.785156 237.277344 77.855469 C 237.28125 75.84375 236.941406 73.890625 236.261719 71.996094 C 235.578125 70.085938 234.636719 68.375 233.394531 66.878906 C 232.132812 65.359375 230.628906 64.140625 228.882812 63.222656 C 227.136719 62.285156 225.15625 61.8125 222.972656 61.8125 L 187.898438 61.8125 L 187.898438 124.394531 L 217.410156 124.394531 C 220.476562 124.394531 223.375 124.078125 226.105469 123.453125 C 228.847656 122.839844 231.246094 121.886719 233.292969 120.601562 C 235.363281 119.304688 236.988281 117.640625 238.164062 115.628906 C 239.339844 113.617188 239.921875 111.15625 239.921875 108.351562 C 239.921875 103.949219 238.875 100.4375 236.785156 97.824219 Z M 205.09375 76.4375 L 216.089844 76.4375 C 217.207031 76.421875 218.183594 76.792969 219.007812 77.546875 C 219.835938 78.289062 220.253906 79.507812 220.253906 81.203125 C 220.253906 83.148438 219.761719 84.445312 218.785156 85.089844 C 217.8125 85.75 216.738281 86.074219 215.5625 86.0625 L 205.09375 86.0625 Z M 220.992188 108.609375 C 220.027344 109.492188 218.84375 109.941406 217.410156 109.941406 L 205.097656 109.941406 L 205.097656 99.445312 L 218.035156 99.445312 C 219.335938 99.445312 220.386719 99.96875 221.203125 100.988281 C 222.042969 102.015625 222.445312 103.285156 222.445312 104.820312 C 222.445312 106.464844 221.964844 107.726562 220.992188 108.609375 Z M 220.992188 108.609375 " fill-opacity="1" fill-rule="nonzero"/><path fill="#000000" d="M 248.714844 124.394531 L 293.363281 124.394531 L 293.363281 109.410156 L 265.921875 109.410156 L 265.921875 99.539062 L 288.699219 99.539062 L 288.699219 85.605469 L 265.921875 85.605469 L 265.921875 76.796875 L 292.570312 76.796875 L 292.570312 61.816406 L 248.714844 61.816406 Z M 248.714844 124.394531 " fill-opacity="1" fill-rule="nonzero"/><path fill="#000000" d="M 77.460938 50.996094 L 77.460938 29.203125 L 85.707031 29.203125 L 85.707031 22.339844 L 61.292969 22.339844 L 61.292969 29.203125 L 69.578125 29.203125 L 69.578125 50.996094 Z M 77.460938 50.996094 " fill-opacity="1" fill-rule="nonzero"/><path fill="#000000" d="M 112.949219 50.996094 L 112.949219 22.339844 L 105.066406 22.339844 L 105.066406 32.914062 L 95.445312 32.914062 L 95.445312 22.339844 L 87.566406 22.339844 L 87.566406 50.996094 L 95.445312 50.996094 L 95.445312 39.773438 L 105.066406 39.773438 L 105.066406 50.996094 Z M 112.949219 50.996094 " fill-opacity="1" fill-rule="nonzero"/><path fill="#000000" d="M 136.957031 29.203125 L 136.957031 22.339844 L 116.867188 22.339844 L 116.867188 50.996094 L 137.320312 50.996094 L 137.320312 44.136719 L 124.75 44.136719 L 124.75 39.613281 L 135.179688 39.613281 L 135.179688 33.238281 L 124.75 33.238281 L 124.75 29.203125 Z M 136.957031 29.203125 " fill-opacity="1" fill-rule="nonzero"/><path fill="#000000" d="M 11.253906 203.144531 L 28.503906 203.144531 L 28.503906 180.945312 L 57.941406 180.945312 L 57.941406 166.648438 L 28.503906 166.648438 L 28.503906 156.082031 L 61.054688 156.082031 L 61.054688 140.988281 L 11.253906 140.988281 Z M 11.253906 203.144531 " fill-opacity="1" fill-rule="nonzero"/><path fill="#000000" d="M 108.539062 175.972656 C 108.539062 184.675781 104.003906 188.761719 97.066406 188.761719 C 90.128906 188.761719 85.59375 184.5 85.59375 175.53125 L 85.59375 140.988281 L 68.074219 140.988281 L 68.074219 175.886719 C 68.074219 195.332031 79.195312 204.300781 96.886719 204.300781 C 114.582031 204.300781 126.054688 195.511719 126.054688 175.441406 L 126.054688 140.988281 L 108.539062 140.988281 Z M 108.539062 175.972656 " fill-opacity="1" fill-rule="nonzero"/><path fill="#000000" d="M 162.691406 164.429688 C 154.066406 162.476562 151.933594 161.234375 151.933594 158.390625 L 151.933594 158.214844 C 151.933594 155.992188 153.976562 154.21875 158.15625 154.21875 C 163.671875 154.21875 169.894531 156.347656 175.585938 160.34375 L 184.210938 148.179688 C 177.453125 142.761719 169.183594 139.921875 158.601562 139.921875 C 143.660156 139.921875 134.5 148.269531 134.5 159.8125 L 134.5 159.988281 C 134.5 172.777344 144.730469 176.507812 157.976562 179.527344 C 166.425781 181.480469 168.472656 182.902344 168.472656 185.472656 L 168.472656 185.652344 C 168.472656 188.316406 165.984375 189.914062 161.359375 189.914062 C 154.15625 189.914062 147.308594 187.339844 141.171875 182.457031 L 131.5625 193.910156 C 139.210938 200.75 149.707031 204.210938 160.730469 204.210938 C 175.851562 204.210938 185.898438 196.664062 185.898438 183.964844 L 185.898438 183.789062 C 185.902344 172.15625 177.007812 167.539062 162.691406 164.429688 Z M 162.691406 164.429688 " fill-opacity="1" fill-rule="nonzero"/><path fill="#000000" d="M 194.613281 140.988281 L 211.957031 140.988281 L 211.957031 203.144531 L 194.613281 203.144531 Z M 194.613281 140.988281 " fill-opacity="1" fill-rule="nonzero"/><path fill="#000000" d="M 336.011719 173.84375 L 310.398438 140.988281 L 294.304688 140.988281 L 294.304688 203.144531 L 311.378906 203.144531 L 311.378906 169.046875 L 337.96875 203.144531 L 353.085938 203.144531 L 353.085938 140.988281 L 336.011719 140.988281 Z M 336.011719 173.84375 " fill-opacity="1" fill-rule="nonzero"/><path fill="#000000" d="M 270 171.976562 L 270 172.066406 C 270 180.945312 263.035156 188.144531 253.746094 188.144531 C 244.453125 188.144531 237.582031 181.035156 237.582031 172.15625 L 237.582031 172.066406 C 237.582031 163.1875 244.542969 155.988281 253.832031 155.988281 C 263.125 155.988281 270 163.097656 270 171.976562 Z M 270 171.976562 " fill-opacity="1" fill-rule="nonzero"/><path fill="#000000" d="M 277.160156 149.417969 C 277.46875 148.78125 277.664062 148.109375 277.734375 147.40625 C 277.804688 146.703125 277.75 146.007812 277.574219 145.324219 C 277.394531 144.636719 277.101562 144.003906 276.695312 143.425781 C 276.289062 142.84375 275.796875 142.351562 275.214844 141.949219 C 274.632812 141.546875 273.996094 141.257812 273.308594 141.082031 C 272.621094 140.90625 271.925781 140.855469 271.222656 140.929688 C 270.515625 141.003906 269.847656 141.195312 269.210938 141.511719 C 268.574219 141.824219 268.015625 142.238281 267.527344 142.753906 C 263.429688 140.933594 258.832031 139.914062 253.878906 139.914062 C 235.316406 139.914062 221.394531 154.3125 221.394531 172.0625 L 221.394531 172.238281 C 221.394531 189.988281 235.140625 204.210938 253.703125 204.210938 C 272.269531 204.210938 286.191406 189.808594 286.191406 172.0625 L 286.191406 171.882812 C 286.1875 163.097656 282.820312 155.171875 277.160156 149.417969 Z M 282.640625 172.066406 C 282.640625 188.097656 269.929688 200.664062 253.707031 200.664062 C 245.75 200.664062 238.441406 197.714844 233.105469 192.378906 C 227.851562 187.105469 224.953125 179.949219 224.953125 172.242188 L 224.953125 172.066406 C 224.953125 156.03125 237.660156 143.46875 253.882812 143.46875 C 258.089844 143.453125 262.121094 144.285156 265.976562 145.964844 C 265.929688 146.25 265.90625 146.535156 265.90625 146.824219 C 265.90625 147.082031 265.921875 147.335938 265.957031 147.589844 C 265.988281 147.84375 266.039062 148.097656 266.105469 148.34375 C 266.171875 148.59375 266.25 148.835938 266.347656 149.074219 C 266.445312 149.3125 266.558594 149.542969 266.6875 149.765625 C 266.816406 149.988281 266.957031 150.199219 267.113281 150.40625 C 267.265625 150.609375 267.4375 150.804688 267.617188 150.984375 C 267.796875 151.167969 267.988281 151.339844 268.191406 151.496094 C 268.394531 151.65625 268.605469 151.796875 268.828125 151.929688 C 269.050781 152.058594 269.277344 152.175781 269.515625 152.273438 C 269.753906 152.375 269.996094 152.460938 270.242188 152.527344 C 270.488281 152.597656 270.742188 152.648438 270.996094 152.6875 C 271.25 152.722656 271.503906 152.742188 271.761719 152.746094 C 272.019531 152.75 272.277344 152.734375 272.53125 152.703125 C 272.785156 152.675781 273.039062 152.628906 273.289062 152.566406 C 273.539062 152.503906 273.78125 152.421875 274.019531 152.328125 C 274.261719 152.234375 274.492188 152.125 274.714844 152 C 279.828125 157.246094 282.640625 164.292969 282.640625 171.886719 Z M 282.640625 172.066406 " fill-opacity="1" fill-rule="nonzero"/></svg>