<svg xmlns="http://www.w3.org/2000/svg" xmlns:xlink="http://www.w3.org/1999/xlink" width="300" zoomAndPan="magnify" viewBox="0 0 224.87999 225" height="300" preserveAspectRatio="xMidYMid meet" version="1.0"><defs><clipPath id="a9f7935c6f"><path d="M 0 0.0585938 L 224.761719 0.0585938 L 224.761719 224.9375 L 0 224.9375 Z M 0 0.0585938 " clip-rule="nonzero"/></clipPath></defs><g clip-path="url(#a9f7935c6f)"><path fill="#265710" d="M 112.441406 0.046875 C 50.332031 0.046875 -0.0117188 50.390625 -0.0117188 112.5 C -0.0117188 174.609375 50.332031 224.953125 112.441406 224.953125 C 174.546875 224.953125 224.890625 174.609375 224.890625 112.5 C 224.890625 50.390625 174.546875 0.046875 112.441406 0.046875 Z M 184.5 127.8125 C 177.589844 162.058594 147.949219 187.804688 112.441406 187.804688 C 71.792969 187.804688 38.855469 154.082031 38.855469 112.492188 C 38.855469 70.902344 71.800781 37.183594 112.441406 37.183594 C 128.179688 37.183594 142.773438 42.246094 154.746094 50.875 C 159.398438 54.226562 159.929688 60.949219 155.882812 65.003906 L 148.335938 72.546875 C 145.214844 75.671875 140.339844 76.144531 136.640625 73.726562 C 129.695312 69.191406 121.449219 66.566406 112.597656 66.566406 C 87.921875 66.566406 67.917969 86.988281 67.917969 112.179688 C 67.917969 137.378906 87.921875 157.800781 112.597656 157.800781 C 131.902344 157.800781 148.34375 145.300781 154.601562 127.796875 L 122.316406 127.796875 C 117.808594 127.796875 114.15625 124.148438 114.15625 119.640625 L 114.15625 107.207031 C 114.15625 102.699219 117.808594 99.046875 122.316406 99.046875 L 184.855469 99.046875 C 185.621094 103.410156 186.027344 107.898438 186.027344 112.488281 C 186.027344 117.75 185.503906 122.871094 184.5 127.8125 Z M 184.5 127.8125 " fill-opacity="1" fill-rule="nonzero"/></g><path fill="#ffffff" d="M 122.316406 99.058594 C 117.808594 99.058594 114.15625 102.710938 114.15625 107.21875 L 114.15625 119.652344 C 114.15625 124.160156 117.808594 127.8125 122.316406 127.8125 L 154.589844 127.8125 C 148.335938 145.3125 131.890625 157.8125 112.585938 157.8125 C 87.910156 157.8125 67.90625 137.394531 67.90625 112.191406 C 67.90625 87 87.910156 66.578125 112.585938 66.578125 C 121.4375 66.578125 129.683594 69.203125 136.628906 73.738281 C 140.324219 76.15625 145.203125 75.683594 148.324219 72.558594 L 155.871094 65.015625 C 159.925781 60.960938 159.386719 54.238281 154.734375 50.886719 C 142.765625 42.261719 128.175781 37.195312 112.425781 37.195312 C 71.78125 37.195312 38.84375 70.917969 38.84375 112.507812 C 38.84375 154.097656 71.789062 187.816406 112.425781 187.816406 C 147.9375 187.816406 177.578125 162.070312 184.484375 127.824219 C 185.484375 122.878906 186.011719 117.761719 186.011719 112.511719 C 186.011719 107.925781 185.609375 103.433594 184.84375 99.070312 L 122.316406 99.070312 Z M 122.316406 99.058594 " fill-opacity="1" fill-rule="nonzero"/></svg>